<svg width="43" height="24" viewBox="0 0 43 24" fill="none" xmlns="http://www.w3.org/2000/svg">
<path d="M16.3574 23.0983H21.4828L26.6082 0.901611H21.4828L16.3574 23.0983Z" fill="#7331FF"/>
<path d="M11.5113 0.986694L0.5 11.9981L0.50205 12.0001L0.5 12.0022L11.5113 23.0135L14.851 19.6738L7.17734 12.0001L14.851 4.32638L11.5113 0.986694Z" fill="#7331FF"/>
<path d="M3.83977 8.66272L0.501953 12.0007L3.83989 15.3385L7.1777 12.0005L3.83977 8.66272Z" fill="#7331FF"/>
<path d="M42.4995 11.998L31.4881 0.986694L28.1484 4.32641L35.8221 12.0001L28.1484 19.6738L31.4881 23.0135L42.4995 12.0021L42.4974 12.0001L42.4995 11.998Z" fill="#7331FF"/>
<path d="M39.1601 8.66199L35.8223 11.9999L39.1602 15.3377L42.498 11.9998L39.1601 8.66199Z" fill="#7331FF"/>
</svg>
