<svg width="224" height="24" viewBox="0 0 224 24" fill="none" xmlns="http://www.w3.org/2000/svg">
<path d="M16.3574 23.0983H21.4828L26.6082 0.901611H21.4828L16.3574 23.0983Z" fill="#7331FF"/>
<path d="M11.5113 0.986694L0.5 11.9981L0.50205 12.0001L0.5 12.0022L11.5113 23.0135L14.851 19.6738L7.17734 12.0001L14.851 4.32638L11.5113 0.986694Z" fill="#7331FF"/>
<path d="M3.83977 8.66272L0.501953 12.0007L3.83989 15.3385L7.1777 12.0005L3.83977 8.66272Z" fill="#7331FF"/>
<path d="M42.4995 11.998L31.4881 0.986694L28.1484 4.32641L35.8221 12.0001L28.1484 19.6738L31.4881 23.0135L42.4995 12.0021L42.4974 12.0001L42.4995 11.998Z" fill="#7331FF"/>
<path d="M39.1601 8.66199L35.8223 11.9999L39.1602 15.3377L42.498 11.9998L39.1601 8.66199Z" fill="#7331FF"/>
<g clip-path="url(#clip0_126_40)">
<path d="M59.9333 22.52C58.6356 22.52 57.4622 22.2978 56.4133 21.8533C55.3822 21.4089 54.5645 20.7689 53.96 19.9333C53.3556 19.0978 53.0445 18.1111 53.0267 16.9733H57.0267C57.08 17.7378 57.3467 18.3422 57.8267 18.7867C58.3245 19.2311 59 19.4533 59.8533 19.4533C60.7245 19.4533 61.4089 19.2489 61.9067 18.84C62.4045 18.4133 62.6533 17.8622 62.6533 17.1867C62.6533 16.6355 62.4845 16.1822 62.1467 15.8267C61.8089 15.4711 61.3822 15.1955 60.8667 15C60.3689 14.7867 59.6755 14.5555 58.7867 14.3067C57.5778 13.9511 56.5911 13.6045 55.8267 13.2667C55.08 12.9111 54.4311 12.3867 53.88 11.6933C53.3467 10.9822 53.08 10.04 53.08 8.86668C53.08 7.76448 53.3556 6.80445 53.9067 5.98667C54.4578 5.16889 55.2311 4.54667 56.2267 4.12C57.2222 3.67556 58.36 3.45334 59.64 3.45334C61.56 3.45334 63.1155 3.92445 64.3067 4.86667C65.5155 5.79111 66.1822 7.08889 66.3067 8.76001H62.2C62.1645 8.12001 61.8889 7.59556 61.3733 7.18666C60.8755 6.76 60.2089 6.54667 59.3733 6.54667C58.6445 6.54667 58.0578 6.73333 57.6133 7.10667C57.1867 7.48 56.9733 8.02221 56.9733 8.73335C56.9733 9.23115 57.1333 9.64888 57.4533 9.98668C57.7911 10.3067 58.2 10.5733 58.68 10.7867C59.1778 10.9822 59.8711 11.2133 60.76 11.48C61.9689 11.8355 62.9555 12.1911 63.72 12.5467C64.4845 12.9022 65.1422 13.4355 65.6933 14.1467C66.2445 14.8578 66.52 15.7911 66.52 16.9467C66.52 17.9422 66.2622 18.8667 65.7467 19.72C65.2311 20.5733 64.4755 21.2578 63.48 21.7733C62.4845 22.2711 61.3022 22.52 59.9333 22.52Z" fill="white"/>
<path d="M69.9166 5.8C69.2588 5.8 68.7078 5.59556 68.2633 5.18667C67.8366 4.76 67.6233 4.23556 67.6233 3.61333C67.6233 2.99111 67.8366 2.47556 68.2633 2.06666C68.7078 1.64 69.2588 1.42667 69.9166 1.42667C70.5744 1.42667 71.1166 1.64 71.5433 2.06666C71.9878 2.47556 72.21 2.99111 72.21 3.61333C72.21 4.23556 71.9878 4.76 71.5433 5.18667C71.1166 5.59556 70.5744 5.8 69.9166 5.8ZM71.7566 7.56V22.3333H68.0233V7.56H71.7566Z" fill="white"/>
<path d="M72.7518 14.8933C72.7518 13.4 73.0452 12.0755 73.6318 10.92C74.2363 9.76448 75.054 8.87555 76.0852 8.25335C77.1163 7.63111 78.263 7.32001 79.5252 7.32001C80.4852 7.32001 81.4007 7.53333 82.2718 7.96001C83.143 8.36888 83.8363 8.92001 84.3518 9.61335V2.60001H88.1385V22.3333H84.3518V20.1467C83.8896 20.8755 83.2407 21.4622 82.4052 21.9067C81.5696 22.3511 80.6007 22.5733 79.4985 22.5733C78.254 22.5733 77.1163 22.2533 76.0852 21.6133C75.054 20.9733 74.2363 20.0755 73.6318 18.92C73.0452 17.7467 72.7518 16.4045 72.7518 14.8933ZM84.3785 14.9467C84.3785 14.04 84.2007 13.2667 83.8452 12.6267C83.4896 11.9689 83.0096 11.4711 82.4052 11.1333C81.8007 10.7778 81.1518 10.6 80.4585 10.6C79.7652 10.6 79.1252 10.7689 78.5385 11.1067C77.9518 11.4445 77.4718 11.9422 77.0985 12.6C76.743 13.24 76.5652 14.0045 76.5652 14.8933C76.5652 15.7822 76.743 16.5645 77.0985 17.24C77.4718 17.8978 77.9518 18.4045 78.5385 18.76C79.143 19.1155 79.783 19.2933 80.4585 19.2933C81.1518 19.2933 81.8007 19.1245 82.4052 18.7867C83.0096 18.4311 83.4896 17.9333 83.8452 17.2933C84.2007 16.6355 84.3785 15.8533 84.3785 14.9467Z" fill="white"/>
<path d="M98.2382 7.34665C99.9982 7.34665 101.42 7.90666 102.505 9.02666C103.589 10.1289 104.132 11.6755 104.132 13.6667V22.3333H100.398V14.1733C100.398 13 100.105 12.1022 99.5182 11.48C98.9315 10.84 98.1315 10.52 97.1182 10.52C96.087 10.52 95.2693 10.84 94.6648 11.48C94.0782 12.1022 93.7848 13 93.7848 14.1733V22.3333H90.0515V7.55998H93.7848V9.4C94.2826 8.76 94.9137 8.2622 95.6782 7.90666C96.4604 7.53332 97.3137 7.34665 98.2382 7.34665Z" fill="white"/>
<path d="M119.681 14.6267C119.681 15.16 119.646 15.64 119.575 16.0667H108.775C108.864 17.1333 109.237 17.9689 109.895 18.5733C110.553 19.1778 111.362 19.48 112.322 19.48C113.708 19.48 114.695 18.8845 115.282 17.6933H119.308C118.882 19.1155 118.064 20.2889 116.855 21.2133C115.646 22.12 114.162 22.5733 112.402 22.5733C110.979 22.5733 109.699 22.2622 108.562 21.64C107.442 21 106.562 20.1022 105.922 18.9467C105.299 17.7911 104.988 16.4578 104.988 14.9467C104.988 13.4178 105.299 12.0755 105.922 10.92C106.544 9.76448 107.415 8.87555 108.535 8.25335C109.655 7.63111 110.944 7.32001 112.402 7.32001C113.806 7.32001 115.059 7.62223 116.162 8.22668C117.282 8.83115 118.144 9.69335 118.748 10.8133C119.37 11.9155 119.681 13.1867 119.681 14.6267ZM115.815 13.56C115.797 12.6 115.45 11.8355 114.775 11.2667C114.099 10.68 113.273 10.3867 112.295 10.3867C111.37 10.3867 110.588 10.6711 109.948 11.24C109.326 11.7911 108.944 12.5645 108.802 13.56H115.815Z" fill="white"/>
<path d="M126.833 18.8933L130.567 7.56H134.54L129.073 22.3333H124.54L119.1 7.56H123.1L126.833 18.8933Z" fill="white"/>
<path d="M133.943 14.8933C133.943 13.4 134.237 12.0755 134.823 10.92C135.428 9.76448 136.237 8.87555 137.25 8.25335C138.281 7.63111 139.428 7.32001 140.69 7.32001C141.793 7.32001 142.753 7.54223 143.57 7.98668C144.406 8.43115 145.073 8.99115 145.57 9.66668V7.56H149.33V22.3333H145.57V20.1733C145.09 20.8667 144.423 21.4445 143.57 21.9067C142.735 22.3511 141.766 22.5733 140.663 22.5733C139.419 22.5733 138.281 22.2533 137.25 21.6133C136.237 20.9733 135.428 20.0755 134.823 18.92C134.237 17.7467 133.943 16.4045 133.943 14.8933ZM145.57 14.9467C145.57 14.04 145.393 13.2667 145.037 12.6267C144.681 11.9689 144.201 11.4711 143.597 11.1333C142.993 10.7778 142.343 10.6 141.65 10.6C140.957 10.6 140.317 10.7689 139.73 11.1067C139.143 11.4445 138.663 11.9422 138.29 12.6C137.935 13.24 137.757 14.0045 137.757 14.8933C137.757 15.7822 137.935 16.5645 138.29 17.24C138.663 17.8978 139.143 18.4045 139.73 18.76C140.335 19.1155 140.975 19.2933 141.65 19.2933C142.343 19.2933 142.993 19.1245 143.597 18.7867C144.201 18.4311 144.681 17.9333 145.037 17.2933C145.393 16.6355 145.57 15.8533 145.57 14.9467Z" fill="white"/>
<path d="M176.157 3.72V22.3333H172.424V10.2267L167.437 22.3333H164.611L159.597 10.2267V22.3333H155.864V3.72H160.104L166.024 17.56L171.944 3.72H176.157Z" fill="white"/>
<path d="M177.155 14.8933C177.155 13.4 177.449 12.0755 178.035 10.92C178.639 9.76448 179.449 8.87555 180.462 8.25335C181.493 7.63111 182.639 7.32001 183.902 7.32001C185.004 7.32001 185.964 7.54223 186.782 7.98668C187.617 8.43115 188.284 8.99115 188.782 9.66668V7.56H192.542V22.3333H188.782V20.1733C188.302 20.8667 187.635 21.4445 186.782 21.9067C185.946 22.3511 184.977 22.5733 183.875 22.5733C182.631 22.5733 181.493 22.2533 180.462 21.6133C179.449 20.9733 178.639 20.0755 178.035 18.92C177.449 17.7467 177.155 16.4045 177.155 14.8933ZM188.782 14.9467C188.782 14.04 188.604 13.2667 188.249 12.6267C187.893 11.9689 187.413 11.4711 186.809 11.1333C186.204 10.7778 185.555 10.6 184.862 10.6C184.169 10.6 183.529 10.7689 182.942 11.1067C182.355 11.4445 181.875 11.9422 181.502 12.6C181.146 13.24 180.969 14.0045 180.969 14.8933C180.969 15.7822 181.146 16.5645 181.502 17.24C181.875 17.8978 182.355 18.4045 182.942 18.76C183.546 19.1155 184.186 19.2933 184.862 19.2933C185.555 19.2933 186.204 19.1245 186.809 18.7867C187.413 18.4311 187.893 17.9333 188.249 17.2933C188.604 16.6355 188.782 15.8533 188.782 14.9467Z" fill="white"/>
<path d="M198.188 9.85333C198.668 9.07113 199.29 8.4578 200.055 8.01333C200.837 7.56888 201.726 7.34665 202.721 7.34665V11.2667H201.735C200.561 11.2667 199.673 11.5422 199.068 12.0933C198.481 12.6445 198.188 13.6045 198.188 14.9733V22.3333H194.455V7.55998H198.188V9.85333Z" fill="white"/>
<path d="M205.396 5.8C204.738 5.8 204.187 5.59556 203.743 5.18667C203.316 4.76 203.103 4.23556 203.103 3.61333C203.103 2.99111 203.316 2.47556 203.743 2.06666C204.187 1.64 204.738 1.42667 205.396 1.42667C206.053 1.42667 206.596 1.64 207.023 2.06666C207.467 2.47556 207.689 2.99111 207.689 3.61333C207.689 4.23556 207.467 4.76 207.023 5.18667C206.596 5.59556 206.053 5.8 205.396 5.8ZM207.236 7.56V22.3333H203.503V7.56H207.236Z" fill="white"/>
<path d="M208.231 14.8933C208.231 13.4 208.525 12.0755 209.111 10.92C209.715 9.76448 210.525 8.87555 211.538 8.25335C212.569 7.63111 213.715 7.32001 214.978 7.32001C216.08 7.32001 217.04 7.54223 217.858 7.98668C218.693 8.43115 219.36 8.99115 219.858 9.66668V7.56H223.618V22.3333H219.858V20.1733C219.378 20.8667 218.711 21.4445 217.858 21.9067C217.022 22.3511 216.053 22.5733 214.951 22.5733C213.707 22.5733 212.569 22.2533 211.538 21.6133C210.525 20.9733 209.715 20.0755 209.111 18.92C208.525 17.7467 208.231 16.4045 208.231 14.8933ZM219.858 14.9467C219.858 14.04 219.68 13.2667 219.325 12.6267C218.969 11.9689 218.489 11.4711 217.885 11.1333C217.28 10.7778 216.631 10.6 215.938 10.6C215.245 10.6 214.605 10.7689 214.018 11.1067C213.431 11.4445 212.951 11.9422 212.578 12.6C212.222 13.24 212.045 14.0045 212.045 14.8933C212.045 15.7822 212.222 16.5645 212.578 17.24C212.951 17.8978 213.431 18.4045 214.018 18.76C214.622 19.1155 215.262 19.2933 215.938 19.2933C216.631 19.2933 217.28 19.1245 217.885 18.7867C218.489 18.4311 218.969 17.9333 219.325 17.2933C219.68 16.6355 219.858 15.8533 219.858 14.9467Z" fill="white"/>
</g>
<defs>
<clipPath id="clip0_126_40">
<rect width="170.667" height="22" fill="white" transform="translate(53 1)"/>
</clipPath>
</defs>
</svg>
