<svg width="210" height="32" viewBox="0 0 210 32" fill="none" xmlns="http://www.w3.org/2000/svg">
<path d="M16.3574 24.0983H21.4828L26.6082 1.90161H21.4828L16.3574 24.0983Z" fill="#7331FF"/>
<path d="M11.5113 1.98669L0.5 12.9981L0.50205 13.0001L0.5 13.0022L11.5113 24.0135L14.851 20.6738L7.17734 13.0001L14.851 5.32638L11.5113 1.98669Z" fill="#7331FF"/>
<path d="M3.83977 9.66272L0.501953 13.0007L3.83989 16.3385L7.1777 13.0005L3.83977 9.66272Z" fill="#7331FF"/>
<path d="M42.4995 12.998L31.4881 1.98669L28.1484 5.32641L35.8221 13.0001L28.1484 20.6738L31.4881 24.0135L42.4995 13.0021L42.4974 13.0001L42.4995 12.998Z" fill="#7331FF"/>
<path d="M39.1601 9.66199L35.8223 12.9999L39.1602 16.3377L42.498 12.9998L39.1601 9.66199Z" fill="#7331FF"/>
<path d="M54.676 24V1.59996H62.324C64.948 1.59996 67.1027 2.06926 68.788 3.00796C70.4947 3.92526 71.7533 5.22666 72.564 6.91196C73.396 8.57596 73.812 10.5387 73.812 12.8C73.812 15.0613 73.396 17.0347 72.564 18.72C71.7533 20.384 70.4947 21.6853 68.788 22.624C67.1027 23.5413 64.948 24 62.324 24H54.676ZM58.772 20.48H62.132C64.0093 20.48 65.492 20.1813 66.58 19.584C67.668 18.9653 68.4467 18.0907 68.916 16.96C69.3853 15.808 69.62 14.4213 69.62 12.8C69.62 11.2 69.3853 9.82396 68.916 8.67196C68.4467 7.51996 67.668 6.63466 66.58 6.01596C65.492 5.39726 64.0093 5.08796 62.132 5.08796H58.772V20.48ZM85.042 24.384C83.442 24.384 82.0233 24.0427 80.786 23.36C79.5487 22.6773 78.578 21.7173 77.874 20.48C77.17 19.2427 76.818 17.8133 76.818 16.192C76.818 14.5493 77.1593 13.088 77.842 11.808C78.546 10.528 79.506 9.53596 80.722 8.83196C81.9593 8.10666 83.41 7.74396 85.074 7.74396C86.6313 7.74396 88.0073 8.08526 89.202 8.76796C90.3967 9.45066 91.3247 10.3893 91.986 11.584C92.6687 12.7573 93.01 14.0693 93.01 15.52C93.01 15.7547 92.9993 16 92.978 16.256C92.978 16.512 92.9673 16.7787 92.946 17.056H80.882C80.9673 18.2933 81.394 19.264 82.162 19.968C82.9513 20.672 83.9007 21.024 85.01 21.024C85.842 21.024 86.5353 20.8427 87.09 20.48C87.666 20.096 88.0927 19.6053 88.37 19.008H92.53C92.2313 20.0107 91.73 20.928 91.026 21.76C90.3433 22.5707 89.49 23.2107 88.466 23.68C87.4633 24.1493 86.322 24.384 85.042 24.384ZM85.074 11.072C84.0713 11.072 83.186 11.36 82.418 11.936C81.65 12.4907 81.1593 13.344 80.946 14.496H88.85C88.786 13.4507 88.402 12.6187 87.698 12C86.994 11.3813 86.1193 11.072 85.074 11.072ZM100.118 24L94.294 8.12796H98.582L102.614 20.128L106.646 8.12796H110.934L105.078 24H100.118ZM120.448 24.384C118.848 24.384 117.43 24.0427 116.192 23.36C114.955 22.6773 113.984 21.7173 113.28 20.48C112.576 19.2427 112.224 17.8133 112.224 16.192C112.224 14.5493 112.566 13.088 113.248 11.808C113.952 10.528 114.912 9.53596 116.128 8.83196C117.366 8.10666 118.816 7.74396 120.48 7.74396C122.038 7.74396 123.414 8.08526 124.608 8.76796C125.803 9.45066 126.731 10.3893 127.392 11.584C128.075 12.7573 128.416 14.0693 128.416 15.52C128.416 15.7547 128.406 16 128.384 16.256C128.384 16.512 128.374 16.7787 128.352 17.056H116.288C116.374 18.2933 116.8 19.264 117.568 19.968C118.358 20.672 119.307 21.024 120.416 21.024C121.248 21.024 121.942 20.8427 122.496 20.48C123.072 20.096 123.499 19.6053 123.776 19.008H127.936C127.638 20.0107 127.136 20.928 126.432 21.76C125.75 22.5707 124.896 23.2107 123.872 23.68C122.87 24.1493 121.728 24.384 120.448 24.384ZM120.48 11.072C119.478 11.072 118.592 11.36 117.824 11.936C117.056 12.4907 116.566 13.344 116.352 14.496H124.256C124.192 13.4507 123.808 12.6187 123.104 12C122.4 11.3813 121.526 11.072 120.48 11.072ZM131.861 24V0.959961H135.957V24H131.861ZM147.759 24.384C146.223 24.384 144.836 24.032 143.599 23.328C142.383 22.624 141.412 21.6533 140.687 20.416C139.983 19.1573 139.631 17.7067 139.631 16.064C139.631 14.4213 139.993 12.9813 140.719 11.744C141.444 10.4853 142.415 9.50396 143.631 8.79996C144.868 8.09596 146.255 7.74396 147.791 7.74396C149.305 7.74396 150.671 8.09596 151.887 8.79996C153.124 9.50396 154.095 10.4853 154.799 11.744C155.524 12.9813 155.887 14.4213 155.887 16.064C155.887 17.7067 155.524 19.1573 154.799 20.416C154.095 21.6533 153.124 22.624 151.887 23.328C150.649 24.032 149.273 24.384 147.759 24.384ZM147.759 20.832C148.825 20.832 149.753 20.4373 150.543 19.648C151.332 18.8373 151.727 17.6427 151.727 16.064C151.727 14.4853 151.332 13.3013 150.543 12.512C149.753 11.7013 148.836 11.296 147.791 11.296C146.703 11.296 145.764 11.7013 144.975 12.512C144.207 13.3013 143.823 14.4853 143.823 16.064C143.823 17.6427 144.207 18.8373 144.975 19.648C145.764 20.4373 146.692 20.832 147.759 20.832ZM159.549 31.04V8.12796H163.197L163.645 10.4C164.157 9.69596 164.829 9.07726 165.661 8.54396C166.514 8.01066 167.613 7.74396 168.957 7.74396C170.45 7.74396 171.783 8.10666 172.957 8.83196C174.13 9.55726 175.058 10.5493 175.741 11.808C176.423 13.0667 176.765 14.496 176.765 16.096C176.765 17.696 176.423 19.1253 175.741 20.384C175.058 21.6213 174.13 22.6027 172.957 23.328C171.783 24.032 170.45 24.384 168.957 24.384C167.762 24.384 166.717 24.16 165.821 23.712C164.925 23.264 164.199 22.6347 163.645 21.824V31.04H159.549ZM168.093 20.8C169.394 20.8 170.471 20.3627 171.325 19.488C172.178 18.6133 172.605 17.4827 172.605 16.096C172.605 14.7093 172.178 13.568 171.325 12.672C170.471 11.776 169.394 11.328 168.093 11.328C166.77 11.328 165.682 11.776 164.829 12.672C163.997 13.5467 163.581 14.6773 163.581 16.064C163.581 17.4507 163.997 18.592 164.829 19.488C165.682 20.3627 166.77 20.8 168.093 20.8ZM188.136 24.384C186.536 24.384 185.117 24.0427 183.88 23.36C182.642 22.6773 181.672 21.7173 180.968 20.48C180.264 19.2427 179.912 17.8133 179.912 16.192C179.912 14.5493 180.253 13.088 180.936 11.808C181.64 10.528 182.6 9.53596 183.816 8.83196C185.053 8.10666 186.504 7.74396 188.168 7.74396C189.725 7.74396 191.101 8.08526 192.296 8.76796C193.49 9.45066 194.418 10.3893 195.08 11.584C195.762 12.7573 196.104 14.0693 196.104 15.52C196.104 15.7547 196.093 16 196.072 16.256C196.072 16.512 196.061 16.7787 196.04 17.056H183.976C184.061 18.2933 184.488 19.264 185.256 19.968C186.045 20.672 186.994 21.024 188.104 21.024C188.936 21.024 189.629 20.8427 190.184 20.48C190.76 20.096 191.186 19.6053 191.464 19.008H195.624C195.325 20.0107 194.824 20.928 194.12 21.76C193.437 22.5707 192.584 23.2107 191.56 23.68C190.557 24.1493 189.416 24.384 188.136 24.384ZM188.168 11.072C187.165 11.072 186.28 11.36 185.512 11.936C184.744 12.4907 184.253 13.344 184.04 14.496H191.944C191.88 13.4507 191.496 12.6187 190.792 12C190.088 11.3813 189.213 11.072 188.168 11.072ZM199.549 24V8.12796H203.197L203.581 11.104C204.157 10.08 204.935 9.26926 205.917 8.67196C206.919 8.05326 208.093 7.74396 209.437 7.74396V12.064H208.285C207.389 12.064 206.589 12.2027 205.885 12.48C205.181 12.7573 204.626 13.2373 204.221 13.92C203.837 14.6027 203.645 15.552 203.645 16.768V24H199.549Z" fill="white"/>
</svg>
